####
#
# OBJ File Generated by Meshlab
#
####
# Object corridor.obj
#
# Vertices: 36
# Faces: 68
#
####
mtllib ./corridor.obj.mtl
o corridor
vn -1.000000 4.000000 -2.000000
v 1.650818 -1.658509 -1.356553 0.000000 0.666667 1.000000
vn -2.000000 -5.000000 -1.000000
v 1.650818 1.672043 -1.356553 0.000000 0.666667 1.000000
vn -3.000000 3.000000 0.000000
v 1.650818 -1.658509 2.273321 0.000000 0.666667 1.000000
vn -3.000000 -3.000000 0.000000
v 1.650818 1.672043 2.273321 0.000000 0.666667 1.000000
vn 3.000000 3.000000 0.000000
v -1.703251 -1.658509 -1.356553 0.000000 0.666667 1.000000
vn 3.000000 -3.000000 0.000000
v -1.703251 1.672043 -1.356553 0.000000 0.666667 1.000000
vn 3.000000 3.000000 0.000000
v -1.703251 -1.658509 2.273321 0.000000 0.666667 1.000000
vn 3.000000 -3.000000 0.000000
v -1.703251 1.672043 2.273321 0.000000 0.666667 1.000000
vn -2.000000 5.000000 1.000000
v 1.650818 -1.658509 -5.357850 0.000000 0.666667 1.000000
vn -1.000000 -4.000000 2.000000
v 1.650818 1.672043 -5.357850 0.000000 0.666667 1.000000
vn 3.000000 3.000000 0.000000
v -1.703251 -1.658509 -5.357850 0.000000 0.666667 1.000000
vn 3.000000 -3.000000 0.000000
v -1.703251 1.672043 -5.357850 0.000000 0.666667 1.000000
vn -3.000000 3.000000 0.000000
v 1.650818 -1.658509 -8.116607 0.000000 0.666667 1.000000
vn -3.000000 -3.000000 0.000000
v 1.650818 1.672043 -8.116607 0.000000 0.666667 1.000000
vn 3.000000 3.000000 0.000000
v -1.703251 -1.658509 -8.116607 0.000000 0.666667 1.000000
vn 3.000000 -3.000000 0.000000
v -1.703251 1.672043 -8.116607 0.000000 0.666667 1.000000
vn -3.000000 3.000000 0.000000
v 1.650818 -1.658509 -8.640116 0.000000 0.666667 1.000000
vn -3.000000 -3.000000 0.000000
v 1.650818 1.672043 -8.640116 0.000000 0.666667 1.000000
vn 3.000000 3.000000 0.000000
v -1.703251 -1.658509 -8.640116 0.000000 0.666667 1.000000
vn 3.000000 -3.000000 0.000000
v -1.703251 1.672043 -8.640116 0.000000 0.666667 1.000000
vn -1.000000 2.000000 2.000000
v 1.650818 -1.658509 -8.859900 0.000000 0.666667 1.000000
vn -2.000000 -1.000000 1.000000
v 1.650818 1.672043 -8.859900 0.000000 0.666667 1.000000
vn 2.000000 1.000000 1.000000
v -1.703251 -1.658509 -8.859900 0.000000 0.666667 1.000000
vn 1.000000 -2.000000 2.000000
v -1.703251 1.672043 -8.859900 0.000000 0.666667 1.000000
vn -2.000000 1.000000 -1.000000
v 1.650818 -1.658509 2.630214 0.000000 0.666667 1.000000
vn -1.000000 -2.000000 -2.000000
v 1.650818 1.672043 2.630214 0.000000 0.666667 1.000000
vn 1.000000 2.000000 -2.000000
v -1.703251 -1.658509 2.630214 0.000000 0.666667 1.000000
vn 2.000000 -1.000000 -1.000000
v -1.703251 1.672043 2.630214 0.000000 0.666667 1.000000
vn 0.025141 2.999983 -2.999907
v 2.993457 -1.658509 -1.356553 0.000000 0.666667 1.000000
vn -0.002155 -2.999965 -2.999954
v 2.993457 1.672043 -1.356553 0.000000 0.666667 1.000000
vn 0.002155 2.999965 2.999954
v 2.993457 -1.658509 -5.357850 0.000000 0.666667 1.000000
vn -0.025141 -2.999983 2.999907
v 2.993457 1.672043 -5.357850 0.000000 0.666667 1.000000
vn -1.978594 1.999965 -0.999954
v 7.650148 -1.685938 -1.311727 0.000000 0.666667 1.000000
vn -0.986639 -0.999983 -1.999907
v 7.650148 1.644614 -1.311727 0.000000 0.666667 1.000000
vn -1.013361 0.999983 1.999907
v 7.650148 -1.685938 -5.313025 0.000000 0.666667 1.000000
vn -2.021406 -1.999965 0.999954
v 7.650148 1.644614 -5.313025 0.000000 0.666667 1.000000
# 36 vertices, 0 vertices normals


usemtl material_0
vt 0.625000 0.500000
vt 0.875000 0.500000
vt 0.875000 0.750000
f 1/1/1 5/2/5 7/3/7
vt 0.625000 0.750000
f 1/1/1 7/3/7 3/4/3
vt 0.625000 0.000000
vt 0.375000 0.000000
f 7/5/7 8/6/8 28/6/28
f 7/5/7 28/6/28 27/5/27
vt 0.625000 0.250000
f 8/6/8 7/5/7 5/7/5
vt 0.375000 0.250000
f 8/6/8 5/7/5 6/8/6
vt 0.125000 0.500000
vt 0.375000 0.500000
vt 0.375000 0.750000
f 6/9/6 2/10/2 4/11/4
vt 0.125000 0.750000
f 6/9/6 4/11/4 8/12/8
f 2/10/2 1/1/1 3/4/3
f 2/10/2 3/4/3 4/11/4
f 6/8/6 5/7/5 11/7/11
f 6/8/6 11/7/11 12/8/12
f 12/8/12 11/7/11 15/7/15
f 12/8/12 15/7/15 16/8/16
f 2/10/2 6/9/6 12/9/12
f 2/10/2 12/9/12 10/10/10
f 5/2/5 1/1/1 9/1/9
f 5/2/5 9/1/9 11/2/11
f 14/10/14 16/9/16 20/9/20
f 14/10/14 20/9/20 18/10/18
f 10/10/10 12/9/12 16/9/16
f 10/10/10 16/9/16 14/10/14
f 11/2/11 9/1/9 13/1/13
f 11/2/11 13/1/13 15/2/15
f 9/1/9 10/10/10 14/10/14
f 9/1/9 14/10/14 13/1/13
f 19/2/19 17/1/17 21/1/21
f 19/2/19 21/1/21 23/2/23
f 15/2/15 13/1/13 17/1/17
f 15/2/15 17/1/17 19/2/19
f 13/1/13 14/10/14 18/10/18
f 13/1/13 18/10/18 17/1/17
f 16/8/16 15/7/15 19/7/19
f 16/8/16 19/7/19 20/8/20
f 24/8/24 23/7/23 21/1/21
f 24/8/24 21/1/21 22/10/22
f 17/1/17 18/10/18 22/10/22
f 17/1/17 22/10/22 21/1/21
f 20/8/20 19/7/19 23/7/23
f 20/8/20 23/7/23 24/8/24
f 18/10/18 20/9/20 24/9/24
f 18/10/18 24/9/24 22/10/22
vt 0.625000 1.000000
f 26/11/26 25/4/25 27/13/27
vt 0.375000 1.000000
f 26/11/26 27/13/27 28/14/28
f 8/12/8 4/11/4 26/11/26
f 8/12/8 26/11/26 28/12/28
f 3/4/3 7/3/7 27/3/27
f 3/4/3 27/3/27 25/4/25
f 4/11/4 3/4/3 25/4/25
f 4/11/4 25/4/25 26/11/26
f 10/10/10 9/1/9 31/1/31
f 10/10/10 31/1/31 32/10/32
f 1/1/1 2/10/2 30/10/30
f 1/1/1 30/10/30 29/1/29
f 9/1/9 1/1/1 29/1/29
f 9/1/9 29/1/29 31/1/31
f 2/10/2 10/10/10 32/10/32
f 2/10/2 32/10/32 30/10/30
f 30/10/30 32/10/32 36/10/36
f 30/10/30 36/10/36 34/10/34
f 33/1/33 34/10/34 36/10/36
f 33/1/33 36/10/36 35/1/35
f 31/1/31 29/1/29 33/1/33
f 31/1/31 33/1/33 35/1/35
f 29/1/29 30/10/30 34/10/34
f 29/1/29 34/10/34 33/1/33
f 32/10/32 31/1/31 35/1/35
f 32/10/32 35/1/35 36/10/36
# 68 faces, 14 coords texture

# End of File
